REM MD5 2b0fef056b6ee62d1de87c35a4d9d2b9
FILE "S.C.A.R.S. (Europe) (Demo).bin" BINARY
  TRACK 01 MODE2/2352
    INDEX 01 00:00:00
  TRACK 02 AUDIO
    INDEX 00 00:27:62
    INDEX 01 00:29:62
  TRACK 03 AUDIO
    INDEX 00 02:14:47
    INDEX 01 02:16:47
REM LEADOUT 07:16:48
